<svg width="35" height="26" viewBox="0 0 35 26" fill="none" xmlns="http://www.w3.org/2000/svg">
<g clip-path="url(#clip0_65_428)">
<path d="M32.4171 9.53838H31.8956V8.12028C31.8956 6.48508 30.5652 5.15474 28.93 5.15474H28.1903C27.8764 3.98945 26.8109 3.12915 25.5478 3.12915C24.0388 3.12915 22.8112 4.35674 22.8112 5.86578V10.3945H12.1986V5.86578C12.1986 4.35674 10.9709 3.12915 9.46195 3.12915C8.19891 3.12915 7.13349 3.98945 6.81958 5.15474H6.07982C4.44456 5.15474 3.11418 6.48508 3.11418 8.12028V9.53838H2.59269C1.44148 9.53838 0.504883 10.4751 0.504883 11.6263V13.9909C0.504883 15.1421 1.44148 16.0787 2.59269 16.0787H3.11425V17.5043C3.11425 19.1396 4.44463 20.4699 6.07988 20.4699H6.81965C7.13355 21.6352 8.19897 22.4955 9.46202 22.4955C10.9711 22.4955 12.1986 21.2679 12.1986 19.7589V15.2302H21.2962C21.5714 15.2302 21.7943 15.0073 21.7943 14.7321C21.7943 14.457 21.5714 14.2341 21.2962 14.2341H12.1986V11.3905H22.8112V19.759C22.8112 21.268 24.0388 22.4956 25.5478 22.4956C26.8109 22.4956 27.8764 21.6353 28.1903 20.47H28.93C30.5652 20.47 31.8956 19.1397 31.8956 17.5044V16.0787H32.4171C33.5683 16.0787 34.5049 15.1422 34.5049 13.991V11.6263C34.5049 10.475 33.5683 9.53838 32.4171 9.53838ZM3.11425 15.0827H2.59269C1.99072 15.0827 1.50098 14.5929 1.50098 13.991V11.6263C1.50098 11.0243 1.99072 10.5346 2.59269 10.5346H3.11425V15.0827ZM11.2025 19.759C11.2025 20.7187 10.4217 21.4995 9.46195 21.4995C8.50218 21.4995 7.72145 20.7187 7.72145 19.759V9.71008C7.72145 9.43498 7.49845 9.21208 7.2234 9.21208C6.94834 9.21208 6.72535 9.43498 6.72535 9.71008V19.4739H6.07988C4.99388 19.4739 4.11034 18.5904 4.11034 17.5045V8.12028C4.11034 7.03428 4.99388 6.15078 6.07988 6.15078H6.72535V7.50358C6.72535 7.77868 6.94834 8.00168 7.2234 8.00168C7.49845 8.00168 7.72145 7.77868 7.72145 7.50358V5.86568C7.72145 4.90599 8.50225 4.12518 9.46195 4.12518C10.4217 4.12518 11.2025 4.90599 11.2025 5.86568V19.759ZM27.2884 19.759C27.2884 20.7187 26.5076 21.4995 25.5478 21.4995C24.5881 21.4995 23.8073 20.7187 23.8073 19.759V5.86568C23.8073 4.90599 24.5881 4.12518 25.5478 4.12518C26.5076 4.12518 27.2884 4.90599 27.2884 5.86568V19.759ZM30.8995 17.5044C30.8995 18.5903 30.016 19.4739 28.93 19.4739H28.2845V6.15078H28.93C30.016 6.15078 30.8995 7.03428 30.8995 8.12028V17.5044ZM33.5088 13.991C33.5088 14.5929 33.0191 15.0826 32.4171 15.0826H31.8956V10.5345H32.4171C33.0191 10.5345 33.5088 11.0243 33.5088 11.6263V13.991Z" fill="#FF4100"/>
</g>
<defs>
<clipPath id="clip0_65_428">
<rect width="34" height="34" fill="white" transform="translate(0.504883 -4.1875)"/>
</clipPath>
</defs>
</svg>
