<svg width="258" height="43" viewBox="0 0 258 43" fill="none" xmlns="http://www.w3.org/2000/svg">
<mask id="path-1-outside-1_65_423" maskUnits="userSpaceOnUse" x="0" y="0" width="258" height="43" fill="black">
<rect fill="white" width="258" height="43"/>
<path d="M1.544 13.992H11.272V40.936C10.8453 41.0213 10.2053 41.128 9.352 41.256C8.54133 41.384 7.688 41.448 6.792 41.448C4.872 41.448 3.50667 41.1067 2.696 40.424C1.928 39.7413 1.544 38.568 1.544 36.904V13.992ZM11.272 26.152H1.544V2.088C1.97067 2.00267 2.61067 1.896 3.464 1.768C4.36 1.64 5.21333 1.576 6.024 1.576C7.85867 1.576 9.18133 1.896 9.992 2.536C10.8453 3.176 11.272 4.37067 11.272 6.12V26.152ZM25.48 13.992H35.208V40.936C34.7813 41.0213 34.1413 41.128 33.288 41.256C32.4347 41.384 31.56 41.448 30.664 41.448C28.7867 41.448 27.4427 41.1067 26.632 40.424C25.864 39.7413 25.48 38.568 25.48 36.904V13.992ZM35.208 26.152H25.48V2.088C25.9067 2.00267 26.5467 1.896 27.4 1.768C28.296 1.64 29.1493 1.576 29.96 1.576C31.7947 1.576 33.1173 1.91733 33.928 2.6C34.7813 3.24 35.208 4.456 35.208 6.248V26.152ZM30.984 25.384H5.96V17.64H30.984V25.384ZM44.294 13.928H53.766V40.552C53.382 40.68 52.7847 40.808 51.974 40.936C51.206 41.064 50.374 41.128 49.478 41.128C47.8993 41.128 46.6407 40.6587 45.702 39.72C44.7633 38.7813 44.294 37.5227 44.294 35.944V13.928ZM53.766 29.288H44.294V7.336C44.294 5.75733 44.7633 4.49866 45.702 3.56C46.6407 2.62133 47.8993 2.152 49.478 2.152C50.374 2.152 51.206 2.216 51.974 2.344C52.7847 2.472 53.382 2.6 53.766 2.728V29.288ZM49.478 25V17.384H68.806C69.062 17.8107 69.2753 18.344 69.446 18.984C69.6593 19.624 69.766 20.328 69.766 21.096C69.766 22.4613 69.4673 23.464 68.87 24.104C68.2727 24.7013 67.462 25 66.438 25H49.478ZM49.478 41.128V33.448H70.918C71.174 33.832 71.3873 34.3653 71.558 35.048C71.7713 35.688 71.878 36.4133 71.878 37.224C71.878 38.5467 71.5793 39.528 70.982 40.168C70.3847 40.808 69.574 41.128 68.55 41.128H49.478ZM49.478 9.832V2.152H70.598C70.854 2.57867 71.0887 3.112 71.302 3.752C71.5153 4.392 71.622 5.096 71.622 5.864C71.622 7.22933 71.3233 8.232 70.726 8.872C70.1287 9.512 69.2967 9.832 68.23 9.832H49.478ZM95.535 10.216H95.151C94.7243 11.5813 94.2123 13.096 93.615 14.76C93.0603 16.424 92.463 18.1733 91.823 20.008C91.2257 21.8427 90.6497 23.656 90.095 25.448L88.943 31.144C88.687 31.9547 88.431 32.808 88.175 33.704C87.9617 34.6 87.727 35.496 87.471 36.392C87.215 37.2453 86.9803 38.056 86.767 38.824C86.5537 39.592 86.3617 40.3173 86.191 41C85.679 41.128 85.1243 41.256 84.527 41.384C83.9297 41.5547 83.2257 41.64 82.415 41.64C80.6657 41.64 79.3217 41.32 78.383 40.68C77.4443 40.04 76.975 39.1227 76.975 37.928C76.975 37.3733 77.039 36.8187 77.167 36.264C77.3377 35.7093 77.5297 35.0693 77.743 34.344C78.127 32.9787 78.6603 31.2293 79.343 29.096C80.0683 26.92 80.8577 24.5947 81.711 22.12C82.5643 19.6453 83.4177 17.192 84.271 14.76C85.1243 12.2853 85.9137 10.024 86.639 7.976C87.407 5.928 88.0257 4.328 88.495 3.176C89.135 2.792 90.095 2.45066 91.375 2.152C92.655 1.81067 93.935 1.64 95.215 1.64C97.0497 1.64 98.671 1.896 100.079 2.408C101.53 2.92 102.447 3.77333 102.831 4.968C103.684 7.22933 104.58 9.85333 105.519 12.84C106.458 15.784 107.418 18.8773 108.399 22.12C109.38 25.3627 110.319 28.52 111.215 31.592C112.154 34.6213 112.964 37.352 113.647 39.784C113.22 40.296 112.559 40.7227 111.663 41.064C110.767 41.4053 109.722 41.576 108.527 41.576C106.735 41.576 105.476 41.2773 104.751 40.68C104.068 40.04 103.535 39.08 103.151 37.8L101.103 30.568L100.015 25.192C99.4603 23.272 98.9057 21.416 98.351 19.624C97.7963 17.7893 97.2843 16.0827 96.815 14.504C96.3457 12.8827 95.919 11.4533 95.535 10.216ZM84.719 32.36L88.495 24.808H103.471L104.751 32.36H84.719ZM119.482 14.12H129.21V40.552L124.666 41.128C123.087 41.128 121.828 40.6587 120.89 39.72C119.951 38.7813 119.482 37.5227 119.482 35.944V14.12ZM124.666 41.128V33.256H144.762C145.06 33.64 145.316 34.1733 145.53 34.856C145.743 35.5387 145.85 36.264 145.85 37.032C145.85 38.3973 145.551 39.4213 144.954 40.104C144.356 40.7867 143.524 41.128 142.458 41.128H124.666ZM129.21 26.152H119.482V2.088C119.908 2.00267 120.548 1.896 121.402 1.768C122.298 1.64 123.151 1.576 123.962 1.576C125.796 1.576 127.119 1.896 127.93 2.536C128.783 3.176 129.21 4.37067 129.21 6.12V26.152ZM156.494 10.024L156.43 2.152H176.142C176.398 2.57867 176.632 3.13333 176.846 3.816C177.059 4.456 177.166 5.16 177.166 5.928C177.166 7.29333 176.846 8.31733 176.206 9C175.608 9.68267 174.776 10.024 173.71 10.024H156.494ZM165.39 2.152L165.454 10.024H145.742C145.486 9.59733 145.251 9.064 145.038 8.424C144.824 7.74133 144.718 6.99466 144.718 6.184C144.718 4.81866 145.016 3.816 145.614 3.176C146.254 2.49333 147.086 2.152 148.11 2.152H165.39ZM155.982 8.296H165.646V40.936C165.262 41.0213 164.643 41.128 163.79 41.256C162.936 41.384 162.062 41.448 161.166 41.448C159.288 41.448 157.944 41.1067 157.134 40.424C156.366 39.7413 155.982 38.568 155.982 36.904V8.296ZM183.044 13.992H192.772V40.936C192.345 41.0213 191.705 41.128 190.852 41.256C190.041 41.384 189.188 41.448 188.292 41.448C186.372 41.448 185.007 41.1067 184.196 40.424C183.428 39.7413 183.044 38.568 183.044 36.904V13.992ZM192.772 26.152H183.044V2.088C183.471 2.00267 184.111 1.896 184.964 1.768C185.86 1.64 186.713 1.576 187.524 1.576C189.359 1.576 190.681 1.896 191.492 2.536C192.345 3.176 192.772 4.37067 192.772 6.12V26.152ZM206.98 13.992H216.708V40.936C216.281 41.0213 215.641 41.128 214.788 41.256C213.935 41.384 213.06 41.448 212.164 41.448C210.287 41.448 208.943 41.1067 208.132 40.424C207.364 39.7413 206.98 38.568 206.98 36.904V13.992ZM216.708 26.152H206.98V2.088C207.407 2.00267 208.047 1.896 208.9 1.768C209.796 1.64 210.649 1.576 211.46 1.576C213.295 1.576 214.617 1.91733 215.428 2.6C216.281 3.24 216.708 4.456 216.708 6.248V26.152ZM212.484 25.384H187.46V17.64H212.484V25.384ZM244.354 28.456H235.714C234.605 26.8347 233.389 25 232.066 22.952C230.743 20.904 229.442 18.792 228.162 16.616C226.882 14.44 225.687 12.328 224.578 10.28C223.469 8.232 222.551 6.39733 221.826 4.776C222.295 4.05067 222.935 3.41067 223.746 2.856C224.599 2.25867 225.645 1.96 226.882 1.96C228.333 1.96 229.506 2.28 230.402 2.92C231.298 3.51733 232.173 4.62666 233.026 6.248C233.154 6.46133 233.453 7.016 233.922 7.912C234.391 8.808 234.925 9.832 235.522 10.984C236.119 12.136 236.717 13.3093 237.314 14.504C237.954 15.6987 238.487 16.7227 238.914 17.576C239.383 18.4293 239.682 18.9627 239.81 19.176H240.13C241.111 17.2133 241.986 15.4 242.754 13.736C243.565 12.072 244.333 10.3653 245.058 8.616C245.826 6.86666 246.658 4.98933 247.554 2.984C248.194 2.64266 248.898 2.38666 249.666 2.216C250.477 2.04533 251.245 1.96 251.97 1.96C253.293 1.96 254.381 2.30133 255.234 2.984C256.13 3.66667 256.578 4.69067 256.578 6.056C256.578 6.52533 256.386 7.272 256.002 8.296C255.618 9.27733 254.957 10.6427 254.018 12.392C253.122 14.0987 251.885 16.2747 250.306 18.92C248.727 21.5227 246.743 24.7013 244.354 28.456ZM235.266 25H244.738V40.936C244.354 41.0213 243.735 41.128 242.882 41.256C242.071 41.384 241.239 41.448 240.386 41.448C238.466 41.448 237.122 41.128 236.354 40.488C235.629 39.8053 235.266 38.632 235.266 36.968V25Z"/>
</mask>
<path d="M1.544 13.992V12.992H0.544V13.992H1.544ZM11.272 13.992H12.272V12.992H11.272V13.992ZM11.272 40.936L11.4681 41.9166L12.272 41.7558V40.936H11.272ZM9.352 41.256L9.20366 40.267L9.19604 40.2682L9.352 41.256ZM2.696 40.424L2.03164 41.1714L2.04163 41.1803L2.05186 41.1889L2.696 40.424ZM11.272 26.152V27.152H12.272V26.152H11.272ZM1.544 26.152H0.544V27.152H1.544V26.152ZM1.544 2.088L1.34789 1.10742L0.544 1.26819V2.088H1.544ZM3.464 1.768L3.32257 0.778025L3.31566 0.779062L3.464 1.768ZM9.992 2.536L9.37236 3.32088L9.38208 3.32856L9.392 3.336L9.992 2.536ZM25.48 13.992V12.992H24.48V13.992H25.48ZM35.208 13.992H36.208V12.992H35.208V13.992ZM35.208 40.936L35.4041 41.9166L36.208 41.7558V40.936H35.208ZM33.288 41.256L33.4363 42.2449L33.288 41.256ZM26.632 40.424L25.9676 41.1714L25.9776 41.1803L25.9879 41.1889L26.632 40.424ZM35.208 26.152V27.152H36.208V26.152H35.208ZM25.48 26.152H24.48V27.152H25.48V26.152ZM25.48 2.088L25.2839 1.10742L24.48 1.26819V2.088H25.48ZM27.4 1.768L27.2586 0.778025L27.2517 0.779062L27.4 1.768ZM33.928 2.6L33.2839 3.36491L33.3054 3.38308L33.328 3.4L33.928 2.6ZM30.984 25.384V26.384H31.984V25.384H30.984ZM5.96 25.384H4.96V26.384H5.96V25.384ZM5.96 17.64V16.64H4.96V17.64H5.96ZM30.984 17.64H31.984V16.64H30.984V17.64ZM1.544 13.992V14.992H11.272V13.992V12.992H1.544V13.992ZM11.272 13.992H10.272V40.936H11.272H12.272V13.992H11.272ZM11.272 40.936L11.0759 39.9554C10.6738 40.0358 10.0533 40.1396 9.20366 40.2671L9.352 41.256L9.50034 42.2449C10.3574 42.1164 11.0169 42.0068 11.4681 41.9166L11.272 40.936ZM9.352 41.256L9.19604 40.2682C8.44141 40.3874 7.64048 40.448 6.792 40.448V41.448V42.448C7.73553 42.448 8.64126 42.3806 9.50796 42.2438L9.352 41.256ZM6.792 41.448V40.448C4.93759 40.448 3.87313 40.1079 3.34014 39.6591L2.696 40.424L2.05186 41.1889C3.14021 42.1054 4.80641 42.448 6.792 42.448V41.448ZM2.696 40.424L3.36036 39.6766C2.9076 39.2741 2.544 38.4549 2.544 36.904H1.544H0.544C0.544 38.6811 0.948396 40.2085 2.03164 41.1714L2.696 40.424ZM1.544 36.904H2.544V13.992H1.544H0.544V36.904H1.544ZM11.272 26.152V25.152H1.544V26.152V27.152H11.272V26.152ZM1.544 26.152H2.544V2.088H1.544H0.544V26.152H1.544ZM1.544 2.088L1.74011 3.06858C2.14219 2.98816 2.76272 2.88438 3.61234 2.75693L3.464 1.768L3.31566 0.779062C2.45862 0.907619 1.79914 1.01717 1.34789 1.10742L1.544 2.088ZM3.464 1.768L3.60542 2.75795C4.4599 2.63588 5.26574 2.576 6.024 2.576V1.576V0.575996C5.16093 0.575996 4.2601 0.644115 3.32258 0.778048L3.464 1.768ZM6.024 1.576V2.576C7.7892 2.576 8.83028 2.89293 9.37236 3.32088L9.992 2.536L10.6116 1.75112C9.53239 0.899069 7.92814 0.575996 6.024 0.575996V1.576ZM9.992 2.536L9.392 3.336C9.86736 3.69251 10.272 4.48438 10.272 6.12H11.272H12.272C12.272 4.25695 11.8233 2.65948 10.592 1.736L9.992 2.536ZM11.272 6.12H10.272V26.152H11.272H12.272V6.12H11.272ZM25.48 13.992V14.992H35.208V13.992V12.992H25.48V13.992ZM35.208 13.992H34.208V40.936H35.208H36.208V13.992H35.208ZM35.208 40.936L35.0119 39.9554C34.6098 40.0358 33.9893 40.1396 33.1397 40.2671L33.288 41.256L33.4363 42.2449C34.2934 42.1164 34.9529 42.0068 35.4041 41.9166L35.208 40.936ZM33.288 41.256L33.1397 40.2671C32.3373 40.3874 31.5122 40.448 30.664 40.448V41.448V42.448C31.6078 42.448 32.5321 42.3806 33.4363 42.2449L33.288 41.256ZM30.664 41.448V40.448C28.859 40.448 27.812 40.1104 27.2761 39.6591L26.632 40.424L25.9879 41.1889C27.0733 42.103 28.7143 42.448 30.664 42.448V41.448ZM26.632 40.424L27.2964 39.6766C26.8436 39.2741 26.48 38.4549 26.48 36.904H25.48H24.48C24.48 38.6811 24.8844 40.2085 25.9676 41.1714L26.632 40.424ZM25.48 36.904H26.48V13.992H25.48H24.48V36.904H25.48ZM35.208 26.152V25.152H25.48V26.152V27.152H35.208V26.152ZM25.48 26.152H26.48V2.088H25.48H24.48V26.152H25.48ZM25.48 2.088L25.6761 3.06858C26.0782 2.98816 26.6987 2.88438 27.5483 2.75693L27.4 1.768L27.2517 0.779062C26.3946 0.907619 25.7351 1.01717 25.2839 1.10742L25.48 2.088ZM27.4 1.768L27.5414 2.75795C28.3959 2.63588 29.2017 2.576 29.96 2.576V1.576V0.575996C29.0969 0.575996 28.1961 0.644115 27.2586 0.778048L27.4 1.768ZM29.96 1.576V2.576C31.7154 2.576 32.745 2.9111 33.2839 3.36491L33.928 2.6L34.5721 1.83509C33.4897 0.923561 31.8739 0.575996 29.96 0.575996V1.576ZM33.928 2.6L33.328 3.4C33.7984 3.7528 34.208 4.55943 34.208 6.248H35.208H36.208C36.208 4.35256 35.7643 2.7272 34.528 1.8L33.928 2.6ZM35.208 6.248H34.208V26.152H35.208H36.208V6.248H35.208ZM30.984 25.384V24.384H5.96V25.384V26.384H30.984V25.384ZM5.96 25.384H6.96V17.64H5.96H4.96V25.384H5.96ZM5.96 17.64V18.64H30.984V17.64V16.64H5.96V17.64ZM30.984 17.64H29.984V25.384H30.984H31.984V17.64H30.984ZM44.294 13.928V12.928H43.294V13.928H44.294ZM53.766 13.928H54.766V12.928H53.766V13.928ZM53.766 40.552L54.0822 41.5007L54.766 41.2728V40.552H53.766ZM51.974 40.936L51.818 39.9482L51.8096 39.9496L51.974 40.936ZM45.702 39.72L44.9949 40.4271L45.702 39.72ZM53.766 29.288V30.288H54.766V29.288H53.766ZM44.294 29.288H43.294V30.288H44.294V29.288ZM51.974 2.344L51.8096 3.33043L51.818 3.33176L51.974 2.344ZM53.766 2.728H54.766V2.00723L54.0822 1.77931L53.766 2.728ZM49.478 25H48.478V26H49.478V25ZM49.478 17.384V16.384H48.478V17.384H49.478ZM68.806 17.384L69.6635 16.8695L69.3722 16.384H68.806V17.384ZM69.446 18.984L68.4798 19.2417L68.4876 19.2712L68.4973 19.3002L69.446 18.984ZM68.87 24.104L69.5771 24.8111L69.5893 24.7989L69.6011 24.7863L68.87 24.104ZM49.478 41.128H48.478V42.128H49.478V41.128ZM49.478 33.448V32.448H48.478V33.448H49.478ZM70.918 33.448L71.7501 32.8933L71.4532 32.448H70.918V33.448ZM71.558 35.048L70.5879 35.2905L70.5972 35.3278L70.6093 35.3642L71.558 35.048ZM70.982 40.168L71.7131 40.8503L70.982 40.168ZM49.478 9.832H48.478V10.832H49.478V9.832ZM49.478 2.152V1.152H48.478V2.152H49.478ZM70.598 2.152L71.4555 1.6375L71.1642 1.152H70.598V2.152ZM70.726 8.872L69.9949 8.18968L70.726 8.872ZM44.294 13.928V14.928H53.766V13.928V12.928H44.294V13.928ZM53.766 13.928H52.766V40.552H53.766H54.766V13.928H53.766ZM53.766 40.552L53.4498 39.6033C53.1476 39.704 52.6177 39.822 51.818 39.9482L51.974 40.936L52.13 41.9238C52.9516 41.794 53.6164 41.656 54.0822 41.5007L53.766 40.552ZM51.974 40.936L51.8096 39.9496C51.1033 40.0673 50.327 40.128 49.478 40.128V41.128V42.128C50.421 42.128 51.3087 42.0607 52.1384 41.9224L51.974 40.936ZM49.478 41.128V40.128C48.1107 40.128 47.1253 39.7291 46.4091 39.0129L45.702 39.72L44.9949 40.4271C46.156 41.5882 47.688 42.128 49.478 42.128V41.128ZM45.702 39.72L46.4091 39.0129C45.6929 38.2967 45.294 37.3113 45.294 35.944H44.294H43.294C43.294 37.734 43.8338 39.266 44.9949 40.4271L45.702 39.72ZM44.294 35.944H45.294V13.928H44.294H43.294V35.944H44.294ZM53.766 29.288V28.288H44.294V29.288V30.288H53.766V29.288ZM44.294 29.288H45.294V7.336H44.294H43.294V29.288H44.294ZM44.294 7.336H45.294C45.294 5.96868 45.6929 4.9833 46.4091 4.2671L45.702 3.56L44.9949 2.85289C43.8338 4.01403 43.294 5.54598 43.294 7.336H44.294ZM45.702 3.56L46.4091 4.2671C47.1253 3.55091 48.1107 3.152 49.478 3.152V2.152V1.152C47.688 1.152 46.156 1.69175 44.9949 2.85289L45.702 3.56ZM49.478 2.152V3.152C50.327 3.152 51.1033 3.21268 51.8096 3.33039L51.974 2.344L52.1384 1.3576C51.3087 1.21932 50.421 1.152 49.478 1.152V2.152ZM51.974 2.344L51.818 3.33176C52.6177 3.45802 53.1476 3.57596 53.4498 3.67668L53.766 2.728L54.0822 1.77931C53.6164 1.62403 52.9516 1.48597 52.13 1.35624L51.974 2.344ZM53.766 2.728H52.766V29.288H53.766H54.766V2.728H53.766ZM49.478 25H50.478V17.384H49.478H48.478V25H49.478ZM49.478 17.384V18.384H68.806V17.384V16.384H49.478V17.384ZM68.806 17.384L67.9485 17.8985C68.1436 18.2236 68.3257 18.6641 68.4798 19.2417L69.446 18.984L70.4122 18.7263C70.2249 18.0239 69.9804 17.3977 69.6635 16.8695L68.806 17.384ZM69.446 18.984L68.4973 19.3002C68.6723 19.8252 68.766 20.4208 68.766 21.096H69.766H70.766C70.766 20.2352 70.6463 19.4228 70.3947 18.6678L69.446 18.984ZM69.766 21.096H68.766C68.766 22.3445 68.4887 23.047 68.1389 23.4217L68.87 24.104L69.6011 24.7863C70.446 23.881 70.766 22.5782 70.766 21.096H69.766ZM68.87 24.104L68.1629 23.3969C67.7917 23.7681 67.2568 24 66.438 24V25V26C67.6672 26 68.7537 25.6345 69.5771 24.8111L68.87 24.104ZM66.438 25V24H49.478V25V26H66.438V25ZM49.478 41.128H50.478V33.448H49.478H48.478V41.128H49.478ZM49.478 33.448V34.448H70.918V33.448V32.448H49.478V33.448ZM70.918 33.448L70.086 34.0027C70.2542 34.255 70.432 34.6669 70.5879 35.2905L71.558 35.048L72.5281 34.8055C72.3427 34.0637 72.0938 33.409 71.7501 32.8933L70.918 33.448ZM71.558 35.048L70.6093 35.3642C70.7826 35.8841 70.878 36.4998 70.878 37.224H71.878H72.878C72.878 36.3268 72.7601 35.4919 72.5067 34.7318L71.558 35.048ZM71.878 37.224H70.878C70.878 38.4196 70.6052 39.1061 70.2509 39.4857L70.982 40.168L71.7131 40.8503C72.5534 39.9499 72.878 38.6738 72.878 37.224H71.878ZM70.982 40.168L70.2509 39.4857C69.8751 39.8884 69.3481 40.128 68.55 40.128V41.128V42.128C69.7999 42.128 70.8942 41.7276 71.7131 40.8503L70.982 40.168ZM68.55 41.128V40.128H49.478V41.128V42.128H68.55V41.128ZM49.478 9.832H50.478V2.152H49.478H48.478V9.832H49.478ZM49.478 2.152V3.152H70.598V2.152V1.152H49.478V2.152ZM70.598 2.152L69.7405 2.66649C69.9484 3.01297 70.1555 3.47476 70.3533 4.06823L71.302 3.752L72.2507 3.43577C72.0218 2.74924 71.7596 2.14436 71.4555 1.6375L70.598 2.152ZM71.302 3.752L70.3533 4.06823C70.5283 4.59324 70.622 5.18883 70.622 5.864H71.622H72.622C72.622 5.00316 72.5023 4.19076 72.2507 3.43577L71.302 3.752ZM71.622 5.864H70.622C70.622 7.11251 70.3447 7.81499 69.9949 8.18968L70.726 8.872L71.4571 9.55432C72.302 8.64901 72.622 7.34615 72.622 5.864H71.622ZM70.726 8.872L69.9949 8.18968C69.6271 8.58385 69.0847 8.832 68.23 8.832V9.832V10.832C69.5086 10.832 70.6303 10.4401 71.4571 9.55432L70.726 8.872ZM68.23 9.832V8.832H49.478V9.832V10.832H68.23V9.832ZM95.535 10.216L96.4901 9.9196L96.2717 9.216H95.535V10.216ZM95.151 10.216V9.216H94.4158L94.1965 9.91772L95.151 10.216ZM93.615 14.76L92.6738 14.4221L92.6699 14.4329L92.6663 14.4438L93.615 14.76ZM91.823 20.008L90.8788 19.6786L90.8754 19.6885L90.8721 19.6984L91.823 20.008ZM90.095 25.448L89.1397 25.1523L89.1248 25.2004L89.1148 25.2498L90.095 25.448ZM88.943 31.144L89.8966 31.4451L89.9126 31.3944L89.9232 31.3422L88.943 31.144ZM88.175 33.704L87.2135 33.4293L87.2074 33.4507L87.2022 33.4724L88.175 33.704ZM87.471 36.392L88.4289 36.6794L88.4325 36.6667L87.471 36.392ZM86.767 38.824L85.8035 38.5564L86.767 38.824ZM86.191 41L86.4335 41.9701L87.0156 41.8246L87.1611 41.2425L86.191 41ZM84.527 41.384L84.3175 40.4062L84.2846 40.4132L84.2523 40.4225L84.527 41.384ZM78.383 40.68L77.8197 41.5062L78.383 40.68ZM77.167 36.264L76.2112 35.9699L76.2007 36.0042L76.1926 36.0391L77.167 36.264ZM77.743 34.344L78.7024 34.6262L78.7057 34.6147L77.743 34.344ZM79.343 29.096L78.3942 28.7798L78.3906 28.7912L79.343 29.096ZM81.711 22.12L82.6564 22.446V22.446L81.711 22.12ZM84.271 14.76L85.2146 15.0911L85.2164 15.086L84.271 14.76ZM86.639 7.976L85.7027 7.62487L85.6994 7.63348L85.6964 7.64215L86.639 7.976ZM88.495 3.176L87.9805 2.31851L87.6947 2.49L87.5689 2.7987L88.495 3.176ZM91.375 2.152L91.6022 3.12584L91.6175 3.12227L91.6327 3.11823L91.375 2.152ZM100.079 2.408L99.7372 3.34783L99.7462 3.35099L100.079 2.408ZM102.831 4.968L101.879 5.27401L101.887 5.29774L101.895 5.32106L102.831 4.968ZM105.519 12.84L104.565 13.1398L104.566 13.1438L105.519 12.84ZM108.399 22.12L107.442 22.4097L108.399 22.12ZM111.215 31.592L110.255 31.872L110.257 31.88L110.26 31.888L111.215 31.592ZM113.647 39.784L114.415 40.4242L114.752 40.0201L114.61 39.5137L113.647 39.784ZM111.663 41.064L112.019 41.9985L111.663 41.064ZM104.751 40.68L104.067 41.4095L104.09 41.4315L104.115 41.4519L104.751 40.68ZM103.151 37.8L102.189 38.0725L102.191 38.0799L102.193 38.0873L103.151 37.8ZM101.103 30.568L100.123 30.7664L100.13 30.8038L100.141 30.8405L101.103 30.568ZM100.015 25.192L100.995 24.9936L100.987 24.9537L100.976 24.9145L100.015 25.192ZM98.351 19.624L97.3938 19.9134L97.3957 19.9197L98.351 19.624ZM96.815 14.504L95.8544 14.7821L95.8565 14.789L96.815 14.504ZM84.719 32.36L83.8246 31.9128L83.101 33.36H84.719V32.36ZM88.495 24.808V23.808H87.877L87.6006 24.3608L88.495 24.808ZM103.471 24.808L104.457 24.6409L104.316 23.808H103.471V24.808ZM104.751 32.36V33.36H105.935L105.737 32.1929L104.751 32.36ZM95.535 10.216V9.216H95.151V10.216V11.216H95.535V10.216ZM95.151 10.216L94.1965 9.91772C93.7748 11.2671 93.2675 12.7683 92.6738 14.4221L93.615 14.76L94.5562 15.0979C95.1572 13.4237 95.6738 11.8956 96.1055 10.5143L95.151 10.216ZM93.615 14.76L92.6663 14.4438C92.1133 16.1029 91.5174 17.8479 90.8788 19.6786L91.823 20.008L92.7672 20.3374C93.4086 18.4988 94.0074 16.7451 94.5637 15.0762L93.615 14.76ZM91.823 20.008L90.8721 19.6984C90.2733 21.5376 89.6959 23.3555 89.1397 25.1523L90.095 25.448L91.0503 25.7437C91.6035 23.9565 92.178 22.1478 92.7739 20.3176L91.823 20.008ZM90.095 25.448L89.1148 25.2498L87.9628 30.9458L88.943 31.144L89.9232 31.3422L91.0752 25.6462L90.095 25.448ZM88.943 31.144L87.9894 30.8429C87.7304 31.6631 87.4718 32.5253 87.2135 33.4293L88.175 33.704L89.1365 33.9787C89.3902 33.0907 89.6436 32.2462 89.8966 31.4451L88.943 31.144ZM88.175 33.704L87.2022 33.4724C86.9923 34.3538 86.7614 35.2354 86.5095 36.1173L87.471 36.392L88.4325 36.6667C88.6926 35.7566 88.931 34.8462 89.1478 33.9356L88.175 33.704ZM87.471 36.392L86.5132 36.1047C86.2554 36.9638 86.0188 37.7811 85.8035 38.5564L86.767 38.824L87.7305 39.0916C87.9418 38.3309 88.1746 37.5269 88.4288 36.6793L87.471 36.392ZM86.767 38.824L85.8035 38.5564C85.5881 39.3316 85.3939 40.0654 85.2209 40.7575L86.191 41L87.1611 41.2425C87.3295 40.5693 87.5192 39.8524 87.7305 39.0916L86.767 38.824ZM86.191 41L85.9485 40.0299C85.449 40.1547 84.9054 40.2802 84.3175 40.4062L84.527 41.384L84.7365 42.3618C85.3432 42.2318 85.909 42.1013 86.4335 41.9701L86.191 41ZM84.527 41.384L84.2523 40.4225C83.7667 40.5612 83.1593 40.64 82.415 40.64V41.64V42.64C83.292 42.64 84.0927 42.5481 84.8017 42.3455L84.527 41.384ZM82.415 41.64V40.64C80.7657 40.64 79.6515 40.3346 78.9463 39.8538L78.383 40.68L77.8197 41.5062C78.9918 42.3054 80.5657 42.64 82.415 42.64V41.64ZM78.383 40.68L78.9463 39.8538C78.2972 39.4112 77.975 38.8123 77.975 37.928H76.975H75.975C75.975 39.433 76.5915 40.6688 77.8197 41.5062L78.383 40.68ZM76.975 37.928H77.975C77.975 37.451 78.03 36.9717 78.1414 36.4889L77.167 36.264L76.1926 36.0391C76.048 36.6656 75.975 37.2957 75.975 37.928H76.975ZM77.167 36.264L78.1228 36.5581C78.295 35.9985 78.4882 35.3544 78.7024 34.6262L77.743 34.344L76.7836 34.0618C76.5711 34.7843 76.3804 35.4202 76.2112 35.9699L77.167 36.264ZM77.743 34.344L78.7057 34.6147C79.0852 33.2654 79.6146 31.5285 80.2954 29.4008L79.343 29.096L78.3906 28.7912C77.7061 30.9302 77.1688 32.692 76.7803 34.0733L77.743 34.344ZM79.343 29.096L80.2917 29.4122C81.0158 27.2399 81.804 24.9179 82.6564 22.446L81.711 22.12L80.7656 21.794C79.9113 24.2715 79.1209 26.6001 78.3943 28.7798L79.343 29.096ZM81.711 22.12L82.6564 22.446C83.5091 19.973 84.3619 17.5214 85.2146 15.0911L84.271 14.76L83.3274 14.4289C82.4735 16.8626 81.6195 19.3177 80.7656 21.794L81.711 22.12ZM84.271 14.76L85.2164 15.086C86.069 12.6134 86.8574 10.3548 87.5816 8.30984L86.639 7.976L85.6964 7.64215C84.9699 9.69323 84.1797 11.9572 83.3256 14.434L84.271 14.76ZM86.639 7.976L87.5753 8.32712C88.3421 6.28241 88.957 4.6925 89.4211 3.5533L88.495 3.176L87.5689 2.7987C87.0944 3.96349 86.4719 5.57359 85.7027 7.62487L86.639 7.976ZM88.495 3.176L89.0095 4.03349C89.5173 3.72883 90.3589 3.41596 91.6022 3.12584L91.375 2.152L91.1478 1.17816C89.8311 1.48537 88.7527 1.85517 87.9805 2.31851L88.495 3.176ZM91.375 2.152L91.6327 3.11823C92.8316 2.79853 94.025 2.64 95.215 2.64V1.64V0.639999C93.845 0.639999 92.4784 0.822802 91.1173 1.18576L91.375 2.152ZM95.215 1.64V2.64C96.9584 2.64 98.4603 2.88344 99.7373 3.34779L100.079 2.408L100.421 1.4682C98.8817 0.908562 97.1409 0.639999 95.215 0.639999V1.64ZM100.079 2.408L99.7462 3.35099C100.976 3.78518 101.612 4.44431 101.879 5.27401L102.831 4.968L103.783 4.66199C103.282 3.10235 102.083 2.05482 100.412 1.46501L100.079 2.408ZM102.831 4.968L101.895 5.32106C102.741 7.56059 103.63 10.1662 104.565 13.1398L105.519 12.84L106.473 12.5402C105.53 9.5405 104.628 6.89807 103.767 4.61494L102.831 4.968ZM105.519 12.84L104.566 13.1438C105.503 16.0827 106.462 19.1713 107.442 22.4097L108.399 22.12L109.356 21.8303C108.374 18.5834 107.412 15.4853 106.472 12.5362L105.519 12.84ZM108.399 22.12L107.442 22.4097C108.422 25.6493 109.36 28.8034 110.255 31.872L111.215 31.592L112.175 31.312C111.278 28.2366 110.338 25.076 109.356 21.8303L108.399 22.12ZM111.215 31.592L110.26 31.888C111.196 34.9108 112.004 37.6327 112.684 40.0543L113.647 39.784L114.61 39.5137C113.924 37.0713 113.111 34.3319 112.17 31.296L111.215 31.592ZM113.647 39.784L112.879 39.1438C112.6 39.4786 112.109 39.8241 111.307 40.1295L111.663 41.064L112.019 41.9985C113.009 41.6212 113.841 41.1134 114.415 40.4242L113.647 39.784ZM111.663 41.064L111.307 40.1295C110.549 40.4183 109.629 40.576 108.527 40.576V41.576V42.576C109.815 42.576 110.985 42.3923 112.019 41.9985L111.663 41.064ZM108.527 41.576V40.576C106.785 40.576 105.83 40.2734 105.387 39.9081L104.751 40.68L104.115 41.4519C105.122 42.2813 106.685 42.576 108.527 42.576V41.576ZM104.751 40.68L105.435 39.9505C104.925 39.472 104.463 38.6919 104.109 37.5127L103.151 37.8L102.193 38.0873C102.607 39.4681 103.212 40.608 104.067 41.4095L104.751 40.68ZM103.151 37.8L104.113 37.5275L102.065 30.2955L101.103 30.568L100.141 30.8405L102.189 38.0725L103.151 37.8ZM101.103 30.568L102.083 30.3696L100.995 24.9936L100.015 25.192L99.0349 25.3904L100.123 30.7664L101.103 30.568ZM100.015 25.192L100.976 24.9145C100.419 22.9888 99.8629 21.1267 99.3063 19.3283L98.351 19.624L97.3957 19.9197C97.9484 21.7053 98.5013 23.5552 99.0543 25.4695L100.015 25.192ZM98.351 19.624L99.3082 19.3346C98.7539 17.5012 98.2424 15.796 97.7735 14.219L96.815 14.504L95.8565 14.789C96.3263 16.3693 96.8387 18.0775 97.3938 19.9134L98.351 19.624ZM96.815 14.504L97.7756 14.2259C97.305 12.6002 96.8764 11.1645 96.4901 9.9196L95.535 10.216L94.5799 10.5124C94.9616 11.7421 95.3864 13.1651 95.8544 14.7821L96.815 14.504ZM84.719 32.36L85.6134 32.8072L89.3894 25.2552L88.495 24.808L87.6006 24.3608L83.8246 31.9128L84.719 32.36ZM88.495 24.808V25.808H103.471V24.808V23.808H88.495V24.808ZM103.471 24.808L102.485 24.9751L103.765 32.5271L104.751 32.36L105.737 32.1929L104.457 24.6409L103.471 24.808ZM104.751 32.36V31.36H84.719V32.36V33.36H104.751V32.36ZM119.481 14.12V13.12H118.481V14.12H119.481ZM129.21 14.12H130.21V13.12H129.21V14.12ZM129.21 40.552L129.335 41.5441L130.21 41.4332V40.552H129.21ZM124.665 41.128V42.128H124.729L124.791 42.1201L124.665 41.128ZM120.89 39.72L120.182 40.4271L120.89 39.72ZM124.665 41.128H123.665V42.128H124.665V41.128ZM124.665 33.256V32.256H123.665V33.256H124.665ZM144.762 33.256L145.551 32.6421L145.251 32.256H144.762V33.256ZM145.529 34.856L144.575 35.1543L145.529 34.856ZM144.954 40.104L145.706 40.7625L144.954 40.104ZM129.21 26.152V27.152H130.21V26.152H129.21ZM119.481 26.152H118.481V27.152H119.481V26.152ZM119.481 2.088L119.285 1.10742L118.481 1.26819V2.088H119.481ZM121.401 1.768L121.26 0.778025L121.253 0.779062L121.401 1.768ZM127.93 2.536L127.31 3.32088L127.32 3.32856L127.329 3.336L127.93 2.536ZM119.481 14.12V15.12H129.21V14.12V13.12H119.481V14.12ZM129.21 14.12H128.21V40.552H129.21H130.21V14.12H129.21ZM129.21 40.552L129.084 39.5599L124.54 40.1359L124.665 41.128L124.791 42.1201L129.335 41.5441L129.21 40.552ZM124.665 41.128V40.128C123.298 40.128 122.313 39.7291 121.597 39.0129L120.89 39.72L120.182 40.4271C121.344 41.5882 122.875 42.128 124.665 42.128V41.128ZM120.89 39.72L121.597 39.0129C120.88 38.2967 120.481 37.3113 120.481 35.944H119.481H118.481C118.481 37.734 119.021 39.266 120.182 40.4271L120.89 39.72ZM119.481 35.944H120.481V14.12H119.481H118.481V35.944H119.481ZM124.665 41.128H125.665V33.256H124.665H123.665V41.128H124.665ZM124.665 33.256V34.256H144.762V33.256V32.256H124.665V33.256ZM144.762 33.256L143.972 33.8699C144.171 34.1261 144.382 34.5371 144.575 35.1543L145.529 34.856L146.484 34.5577C146.25 33.8096 145.949 33.1539 145.551 32.6421L144.762 33.256ZM145.529 34.856L144.575 35.1543C144.756 35.7335 144.85 36.3577 144.85 37.032H145.85H146.85C146.85 36.1703 146.73 35.3438 146.484 34.5577L145.529 34.856ZM145.85 37.032H144.85C144.85 38.2736 144.575 39.0179 144.201 39.4455L144.954 40.104L145.706 40.7625C146.527 39.8247 146.85 38.5211 146.85 37.032H145.85ZM144.954 40.104L144.201 39.4455C143.827 39.8724 143.292 40.128 142.458 40.128V41.128V42.128C143.757 42.128 144.885 41.7009 145.706 40.7625L144.954 40.104ZM142.458 41.128V40.128H124.665V41.128V42.128H142.458V41.128ZM129.21 26.152V25.152H119.481V26.152V27.152H129.21V26.152ZM119.481 26.152H120.481V2.088H119.481H118.481V26.152H119.481ZM119.481 2.088L119.678 3.06858C120.08 2.98816 120.7 2.88438 121.55 2.75693L121.401 1.768L121.253 0.779062C120.396 0.907619 119.737 1.01717 119.285 1.10742L119.481 2.088ZM121.401 1.768L121.543 2.75795C122.397 2.63588 123.203 2.576 123.962 2.576V1.576V0.575996C123.098 0.575996 122.198 0.644115 121.26 0.778048L121.401 1.768ZM123.962 1.576V2.576C125.727 2.576 126.768 2.89293 127.31 3.32088L127.93 2.536L128.549 1.75112C127.47 0.899069 125.866 0.575996 123.962 0.575996V1.576ZM127.93 2.536L127.329 3.336C127.805 3.69251 128.21 4.48438 128.21 6.12H129.21H130.21C130.21 4.25695 129.761 2.65948 128.529 1.736L127.93 2.536ZM129.21 6.12H128.21V26.152H129.21H130.21V6.12H129.21ZM156.493 10.024L155.494 10.0321L155.502 11.024H156.493V10.024ZM156.43 2.152V1.152H155.421L155.43 2.16013L156.43 2.152ZM176.142 2.152L176.999 1.6375L176.708 1.152H176.142V2.152ZM176.846 3.816L175.891 4.11427L175.894 4.12328L175.897 4.13223L176.846 3.816ZM176.206 9L175.476 8.31606L175.464 8.32858L175.453 8.3415L176.206 9ZM165.389 2.152L166.389 2.14387L166.381 1.152H165.389V2.152ZM165.454 10.024V11.024H166.462L166.453 10.0159L165.454 10.024ZM145.742 10.024L144.884 10.5385L145.175 11.024H145.742V10.024ZM145.038 8.424L144.083 8.72227L144.086 8.73128L144.089 8.74023L145.038 8.424ZM145.613 3.176L144.884 2.49206L144.882 2.49368L145.613 3.176ZM155.982 8.296V7.296H154.982V8.296H155.982ZM165.646 8.296H166.646V7.296H165.646V8.296ZM165.646 40.936L165.862 41.9122L166.646 41.7382V40.936H165.646ZM163.79 41.256L163.938 42.2449L163.79 41.256ZM157.133 40.424L156.469 41.1714L156.479 41.1803L156.489 41.1889L157.133 40.424ZM156.493 10.024L157.493 10.0159L157.429 2.14387L156.43 2.152L155.43 2.16013L155.494 10.0321L156.493 10.024ZM156.43 2.152V3.152H176.142V2.152V1.152H156.43V2.152ZM176.142 2.152L175.284 2.66649C175.486 3.00274 175.692 3.47737 175.891 4.11427L176.846 3.816L177.8 3.51772C177.572 2.7893 177.309 2.15459 176.999 1.6375L176.142 2.152ZM176.846 3.816L175.897 4.13223C176.072 4.65723 176.165 5.25283 176.165 5.928H177.165H178.165C178.165 5.06716 178.046 4.25476 177.794 3.49977L176.846 3.816ZM177.165 5.928H176.165C176.165 7.15467 175.877 7.88857 175.476 8.31606L176.206 9L176.935 9.68394C177.814 8.74609 178.165 7.43199 178.165 5.928H177.165ZM176.206 9L175.453 8.3415C175.079 8.76838 174.544 9.024 173.71 9.024V10.024V11.024C175.009 11.024 176.137 10.5969 176.958 9.6585L176.206 9ZM173.71 10.024V9.024H156.493V10.024V11.024H173.71V10.024ZM165.389 2.152L164.39 2.16013L164.454 10.0321L165.454 10.024L166.453 10.0159L166.389 2.14387L165.389 2.152ZM165.454 10.024V9.024H145.742V10.024V11.024H165.454V10.024ZM145.742 10.024L146.599 9.5095C146.391 9.16303 146.184 8.70124 145.986 8.10777L145.038 8.424L144.089 8.74023C144.318 9.42676 144.58 10.0316 144.884 10.5385L145.742 10.024ZM145.038 8.424L145.992 8.12572C145.813 7.55151 145.717 6.90679 145.717 6.184H144.717H143.717C143.717 7.08254 143.836 7.93115 144.083 8.72227L145.038 8.424ZM144.717 6.184H145.717C145.717 4.93549 145.995 4.23301 146.345 3.85832L145.613 3.176L144.882 2.49368C144.037 3.39899 143.717 4.70184 143.717 6.184H144.717ZM145.613 3.176L146.343 3.85994C146.775 3.39913 147.333 3.152 148.109 3.152V2.152V1.152C146.838 1.152 145.732 1.58753 144.884 2.49206L145.613 3.176ZM148.109 2.152V3.152H165.389V2.152V1.152H148.109V2.152ZM155.982 8.296V9.296H165.646V8.296V7.296H155.982V8.296ZM165.646 8.296H164.646V40.936H165.646H166.646V8.296H165.646ZM165.646 40.936L165.429 39.9598C165.081 40.037 164.492 40.1395 163.641 40.2671L163.79 41.256L163.938 42.2449C164.794 42.1166 165.442 42.0056 165.862 41.9122L165.646 40.936ZM163.79 41.256L163.641 40.2671C162.839 40.3874 162.014 40.448 161.165 40.448V41.448V42.448C162.109 42.448 163.034 42.3806 163.938 42.2449L163.79 41.256ZM161.165 41.448V40.448C159.361 40.448 158.314 40.1104 157.778 39.6591L157.133 40.424L156.489 41.1889C157.575 42.103 159.216 42.448 161.165 42.448V41.448ZM157.133 40.424L157.798 39.6766C157.345 39.2741 156.982 38.4549 156.982 36.904H155.982H154.982C154.982 38.6811 155.386 40.2085 156.469 41.1714L157.133 40.424ZM155.982 36.904H156.982V8.296H155.982H154.982V36.904H155.982ZM183.044 13.992V12.992H182.044V13.992H183.044ZM192.772 13.992H193.772V12.992H192.772V13.992ZM192.772 40.936L192.968 41.9166L193.772 41.7558V40.936H192.772ZM190.852 41.256L190.704 40.267L190.696 40.2682L190.852 41.256ZM184.196 40.424L183.532 41.1714L183.542 41.1803L183.552 41.1889L184.196 40.424ZM192.772 26.152V27.152H193.772V26.152H192.772ZM183.044 26.152H182.044V27.152H183.044V26.152ZM183.044 2.088L182.848 1.10742L182.044 1.26819V2.088H183.044ZM184.964 1.768L184.823 0.778025L184.816 0.779062L184.964 1.768ZM191.492 2.536L190.872 3.32088L190.882 3.32856L190.892 3.336L191.492 2.536ZM206.98 13.992V12.992H205.98V13.992H206.98ZM216.708 13.992H217.708V12.992H216.708V13.992ZM216.708 40.936L216.904 41.9166L217.708 41.7558V40.936H216.708ZM214.788 41.256L214.936 42.2449L214.788 41.256ZM208.132 40.424L207.468 41.1714L207.478 41.1803L207.488 41.1889L208.132 40.424ZM216.708 26.152V27.152H217.708V26.152H216.708ZM206.98 26.152H205.98V27.152H206.98V26.152ZM206.98 2.088L206.784 1.10742L205.98 1.26819V2.088H206.98ZM208.9 1.768L208.759 0.778025L208.752 0.779062L208.9 1.768ZM215.428 2.6L214.784 3.36491L214.805 3.38308L214.828 3.4L215.428 2.6ZM212.484 25.384V26.384H213.484V25.384H212.484ZM187.46 25.384H186.46V26.384H187.46V25.384ZM187.46 17.64V16.64H186.46V17.64H187.46ZM212.484 17.64H213.484V16.64H212.484V17.64ZM183.044 13.992V14.992H192.772V13.992V12.992H183.044V13.992ZM192.772 13.992H191.772V40.936H192.772H193.772V13.992H192.772ZM192.772 40.936L192.576 39.9554C192.174 40.0358 191.553 40.1396 190.704 40.2671L190.852 41.256L191 42.2449C191.857 42.1164 192.517 42.0068 192.968 41.9166L192.772 40.936ZM190.852 41.256L190.696 40.2682C189.941 40.3874 189.14 40.448 188.292 40.448V41.448V42.448C189.236 42.448 190.141 42.3806 191.008 42.2438L190.852 41.256ZM188.292 41.448V40.448C186.438 40.448 185.373 40.1079 184.84 39.6591L184.196 40.424L183.552 41.1889C184.64 42.1054 186.306 42.448 188.292 42.448V41.448ZM184.196 40.424L184.86 39.6766C184.408 39.2741 184.044 38.4549 184.044 36.904H183.044H182.044C182.044 38.6811 182.448 40.2085 183.532 41.1714L184.196 40.424ZM183.044 36.904H184.044V13.992H183.044H182.044V36.904H183.044ZM192.772 26.152V25.152H183.044V26.152V27.152H192.772V26.152ZM183.044 26.152H184.044V2.088H183.044H182.044V26.152H183.044ZM183.044 2.088L183.24 3.06858C183.642 2.98816 184.263 2.88438 185.112 2.75693L184.964 1.768L184.816 0.779062C183.959 0.907619 183.299 1.01717 182.848 1.10742L183.044 2.088ZM184.964 1.768L185.105 2.75795C185.96 2.63588 186.766 2.576 187.524 2.576V1.576V0.575996C186.661 0.575996 185.76 0.644115 184.823 0.778048L184.964 1.768ZM187.524 1.576V2.576C189.289 2.576 190.33 2.89293 190.872 3.32088L191.492 2.536L192.112 1.75112C191.032 0.899069 189.428 0.575996 187.524 0.575996V1.576ZM191.492 2.536L190.892 3.336C191.367 3.69251 191.772 4.48438 191.772 6.12H192.772H193.772C193.772 4.25695 193.323 2.65948 192.092 1.736L191.492 2.536ZM192.772 6.12H191.772V26.152H192.772H193.772V6.12H192.772ZM206.98 13.992V14.992H216.708V13.992V12.992H206.98V13.992ZM216.708 13.992H215.708V40.936H216.708H217.708V13.992H216.708ZM216.708 40.936L216.512 39.9554C216.11 40.0358 215.489 40.1396 214.64 40.2671L214.788 41.256L214.936 42.2449C215.793 42.1164 216.453 42.0068 216.904 41.9166L216.708 40.936ZM214.788 41.256L214.64 40.2671C213.837 40.3874 213.012 40.448 212.164 40.448V41.448V42.448C213.108 42.448 214.032 42.3806 214.936 42.2449L214.788 41.256ZM212.164 41.448V40.448C210.359 40.448 209.312 40.1104 208.776 39.6591L208.132 40.424L207.488 41.1889C208.573 42.103 210.214 42.448 212.164 42.448V41.448ZM208.132 40.424L208.796 39.6766C208.344 39.2741 207.98 38.4549 207.98 36.904H206.98H205.98C205.98 38.6811 206.384 40.2085 207.468 41.1714L208.132 40.424ZM206.98 36.904H207.98V13.992H206.98H205.98V36.904H206.98ZM216.708 26.152V25.152H206.98V26.152V27.152H216.708V26.152ZM206.98 26.152H207.98V2.088H206.98H205.98V26.152H206.98ZM206.98 2.088L207.176 3.06858C207.578 2.98816 208.199 2.88438 209.048 2.75693L208.9 1.768L208.752 0.779062C207.895 0.907619 207.235 1.01717 206.784 1.10742L206.98 2.088ZM208.9 1.768L209.041 2.75795C209.896 2.63588 210.702 2.576 211.46 2.576V1.576V0.575996C210.597 0.575996 209.696 0.644115 208.759 0.778048L208.9 1.768ZM211.46 1.576V2.576C213.215 2.576 214.245 2.9111 214.784 3.36491L215.428 2.6L216.072 1.83509C214.99 0.923561 213.374 0.575996 211.46 0.575996V1.576ZM215.428 2.6L214.828 3.4C215.298 3.7528 215.708 4.55943 215.708 6.248H216.708H217.708C217.708 4.35256 217.264 2.7272 216.028 1.8L215.428 2.6ZM216.708 6.248H215.708V26.152H216.708H217.708V6.248H216.708ZM212.484 25.384V24.384H187.46V25.384V26.384H212.484V25.384ZM187.46 25.384H188.46V17.64H187.46H186.46V25.384H187.46ZM187.46 17.64V18.64H212.484V17.64V16.64H187.46V17.64ZM212.484 17.64H211.484V25.384H212.484H213.484V17.64H212.484ZM244.354 28.456V29.456H244.903L245.198 28.9929L244.354 28.456ZM235.714 28.456L234.889 29.0207L235.187 29.456H235.714V28.456ZM232.066 22.952L232.906 22.4095L232.066 22.952ZM228.162 16.616L227.3 17.123L228.162 16.616ZM224.578 10.28L225.457 9.80371L224.578 10.28ZM221.826 4.776L220.986 4.23274L220.691 4.68867L220.913 5.18436L221.826 4.776ZM223.746 2.856L224.311 3.68135L224.319 3.67523L223.746 2.856ZM230.402 2.92L229.821 3.73373L229.834 3.7431L229.847 3.75205L230.402 2.92ZM233.026 6.248L232.141 6.71374L232.154 6.7385L232.169 6.76249L233.026 6.248ZM233.922 7.912L233.036 8.37601L233.922 7.912ZM235.522 10.984L234.634 11.4443L235.522 10.984ZM237.314 14.504L236.42 14.9512L236.426 14.9638L236.433 14.9762L237.314 14.504ZM238.914 17.576L238.02 18.0232L238.028 18.0407L238.038 18.0579L238.914 17.576ZM239.81 19.176L238.953 19.6905L239.244 20.176H239.81V19.176ZM240.13 19.176V20.176H240.748L241.024 19.6232L240.13 19.176ZM242.754 13.736L241.855 13.298L241.85 13.3074L241.846 13.3169L242.754 13.736ZM245.058 8.616L244.142 8.21401L244.138 8.22345L244.134 8.23298L245.058 8.616ZM247.554 2.984L247.083 2.10164L246.781 2.263L246.641 2.57606L247.554 2.984ZM249.666 2.216L249.46 1.23739L249.449 1.23981L249.666 2.216ZM255.234 2.984L254.609 3.76487L254.619 3.77226L254.628 3.77943L255.234 2.984ZM256.002 8.296L256.933 8.6604L256.936 8.65378L256.938 8.64712L256.002 8.296ZM254.018 12.392L253.137 11.9192L253.133 11.9272L254.018 12.392ZM250.306 18.92L251.161 19.4386L251.165 19.4325L250.306 18.92ZM235.266 25V24H234.266V25H235.266ZM244.738 25H245.738V24H244.738V25ZM244.738 40.936L244.955 41.9122L245.738 41.7382V40.936H244.738ZM242.882 41.256L242.734 40.267L242.726 40.2682L242.882 41.256ZM236.354 40.488L235.669 41.2162L235.691 41.2369L235.714 41.2562L236.354 40.488ZM244.354 28.456V27.456H235.714V28.456V29.456H244.354V28.456ZM235.714 28.456L236.539 27.8913C235.436 26.2788 234.225 24.4517 232.906 22.4095L232.066 22.952L231.226 23.4945C232.552 25.5483 233.773 27.3905 234.889 29.0207L235.714 28.456ZM232.066 22.952L232.906 22.4095C231.591 20.3736 230.297 18.2734 229.024 16.109L228.162 16.616L227.3 17.123C228.587 19.3106 229.895 21.4344 231.226 23.4945L232.066 22.952ZM228.162 16.616L229.024 16.109C227.749 13.9423 226.561 11.8406 225.457 9.80371L224.578 10.28L223.699 10.7563C224.814 12.8154 226.015 14.9377 227.3 17.123L228.162 16.616ZM224.578 10.28L225.457 9.80371C224.357 7.77153 223.451 5.96011 222.739 4.36763L221.826 4.776L220.913 5.18436C221.651 6.83455 222.581 8.69247 223.699 10.7563L224.578 10.28ZM221.826 4.776L222.666 5.31925C223.054 4.71946 223.595 4.17131 224.311 3.68131L223.746 2.856L223.181 2.03069C222.276 2.65002 221.537 3.38188 220.986 4.23274L221.826 4.776ZM223.746 2.856L224.319 3.67523C224.975 3.21632 225.81 2.96 226.882 2.96V1.96V0.959999C225.479 0.959999 224.224 1.30101 223.173 2.03677L223.746 2.856ZM226.882 1.96V2.96C228.19 2.96 229.141 3.24813 229.821 3.73373L230.402 2.92L230.983 2.10626C229.871 1.31187 228.475 0.959999 226.882 0.959999V1.96ZM230.402 2.92L229.847 3.75205C230.539 4.21298 231.318 5.1495 232.141 6.71374L233.026 6.248L233.911 5.78225C233.028 4.10383 232.057 2.82168 230.957 2.08795L230.402 2.92ZM233.026 6.248L232.169 6.76249C232.278 6.94529 232.562 7.47013 233.036 8.37601L233.922 7.912L234.808 7.44799C234.344 6.56186 234.03 5.97737 233.883 5.7335L233.026 6.248ZM233.922 7.912L233.036 8.37601C233.505 9.27049 234.037 10.2932 234.634 11.4443L235.522 10.984L236.41 10.5237C235.812 9.37078 235.278 8.34551 234.808 7.44799L233.922 7.912ZM235.522 10.984L234.634 11.4443C235.229 12.5918 235.824 13.7608 236.42 14.9512L237.314 14.504L238.208 14.0568C237.609 12.8579 237.009 11.6802 236.41 10.5237L235.522 10.984ZM237.314 14.504L236.433 14.9762C237.07 16.1657 237.598 17.1809 238.02 18.0232L238.914 17.576L239.808 17.1288C239.376 16.2644 238.838 15.2316 238.195 14.0318L237.314 14.504ZM238.914 17.576L238.038 18.0579C238.504 18.9053 238.813 19.4575 238.953 19.6905L239.81 19.176L240.667 18.6615C240.551 18.4679 240.263 17.9533 239.79 17.0941L238.914 17.576ZM239.81 19.176V20.176H240.13V19.176V18.176H239.81V19.176ZM240.13 19.176L241.024 19.6232C242.01 17.653 242.889 15.8301 243.662 14.1551L242.754 13.736L241.846 13.3169C241.083 14.9699 240.213 16.7737 239.236 18.7288L240.13 19.176ZM242.754 13.736L243.653 14.174C244.473 12.4915 245.249 10.7665 245.982 8.99901L245.058 8.616L244.134 8.23298C243.416 9.96418 242.657 11.6525 241.855 13.298L242.754 13.736ZM245.058 8.616L245.974 9.01799C246.741 7.27091 247.572 5.39557 248.467 3.39194L247.554 2.984L246.641 2.57606C245.744 4.58309 244.911 6.46242 244.142 8.21401L245.058 8.616ZM247.554 2.984L248.025 3.86635C248.578 3.57108 249.196 3.34486 249.883 3.19219L249.666 2.216L249.449 1.23981C248.6 1.42847 247.81 1.71425 247.083 2.10164L247.554 2.984ZM249.666 2.216L249.872 3.19455C250.624 3.03617 251.323 2.96 251.97 2.96V1.96V0.959999C251.166 0.959999 250.329 1.05449 249.46 1.23745L249.666 2.216ZM251.97 1.96V2.96C253.115 2.96 253.968 3.2521 254.609 3.76487L255.234 2.984L255.859 2.20313C254.793 1.35056 253.47 0.959999 251.97 0.959999V1.96ZM255.234 2.984L254.628 3.77943C255.222 4.23223 255.578 4.9288 255.578 6.056H256.578H257.578C257.578 4.45253 257.038 3.1011 255.84 2.18857L255.234 2.984ZM256.578 6.056H255.578C255.578 6.32705 255.449 6.92321 255.066 7.94487L256.002 8.296L256.938 8.64712C257.323 7.62079 257.578 6.72361 257.578 6.056H256.578ZM256.002 8.296L255.071 7.9316C254.709 8.85652 254.07 10.1801 253.137 11.9192L254.018 12.392L254.899 12.8648C255.843 11.1053 256.527 9.69814 256.933 8.6604L256.002 8.296ZM254.018 12.392L253.133 11.9272C252.249 13.6111 251.021 15.7698 249.447 18.4075L250.306 18.92L251.165 19.4325C252.748 16.7795 253.995 14.5862 254.903 12.8568L254.018 12.392ZM250.306 18.92L249.451 18.4014C247.877 20.9958 245.897 24.168 243.51 27.9191L244.354 28.456L245.198 28.9929C247.589 25.2346 249.577 22.0495 251.161 19.4386L250.306 18.92ZM235.266 25V26H244.738V25V24H235.266V25ZM244.738 25H243.738V40.936H244.738H245.738V25H244.738ZM244.738 40.936L244.521 39.9598C244.174 40.037 243.584 40.1395 242.734 40.2671L242.882 41.256L243.03 42.2449C243.886 42.1166 244.534 42.0056 244.955 41.9122L244.738 40.936ZM242.882 41.256L242.726 40.2682C241.969 40.3878 241.189 40.448 240.386 40.448V41.448V42.448C241.289 42.448 242.174 42.3802 243.038 42.2438L242.882 41.256ZM240.386 41.448V40.448C238.514 40.448 237.478 40.1233 236.994 39.7198L236.354 40.488L235.714 41.2562C236.766 42.1327 238.418 42.448 240.386 42.448V41.448ZM236.354 40.488L237.039 39.7598C236.615 39.36 236.266 38.5325 236.266 36.968H235.266H234.266C234.266 38.7315 234.643 40.2506 235.669 41.2162L236.354 40.488ZM235.266 36.968H236.266V25H235.266H234.266V36.968H235.266Z" fill="url(#paint0_linear_65_423)" fill-opacity="0.5" mask="url(#path-1-outside-1_65_423)"/>
<defs>
<linearGradient id="paint0_linear_65_423" x1="131.536" y1="-25.5" x2="134.881" y2="274.993" gradientUnits="userSpaceOnUse">
<stop stop-color="white"/>
<stop offset="0.649038" stop-color="#242424"/>
</linearGradient>
</defs>
</svg>
